<svg width="24" height="18" viewBox="0 0 24 18" fill="none" xmlns="http://www.w3.org/2000/svg">
<path opacity="0.5" d="M23.5313 5.95312C23.7188 5.81249 24 5.95312 24 6.18749V15.75C24 17.0156 22.9688 18 21.75 18L2.25 18C0.984375 18 0 17.0156 0 15.75L0 6.18749C0 5.95312 0.234375 5.81249 0.421875 5.95312C1.5 6.79687 2.85938 7.82812 7.64063 11.2969C8.625 12 10.3125 13.5469 12 13.5469C13.6406 13.5469 15.375 12 16.3125 11.2969C21.0938 7.82812 22.4531 6.79687 23.5313 5.95312ZM12 12C10.875 12.0469 9.32813 10.6406 8.53125 10.0781C2.29688 5.57812 1.82813 5.15624 0.421875 4.03124C0.140625 3.84374 0 3.51562 0 3.14062L0 2.24999C0 1.03124 0.984375 -6.25849e-06 2.25 -6.25849e-06L21.75 -6.25849e-06C22.9688 -6.25849e-06 24 1.03124 24 2.24999V3.14062C24 3.51562 23.8125 3.84374 23.5313 4.03124C22.125 5.15624 21.6563 5.57812 15.4219 10.0781C14.625 10.6406 13.0781 12.0469 12 12Z" fill="black"/>
</svg>
