<svg width="14" height="24" viewBox="0 0 14 24" fill="none" xmlns="http://www.w3.org/2000/svg">
<path d="M13.0306 0H9.91345C9.03845 0 8.24939 0.140625 7.54626 0.421875C6.82751 0.6875 6.21814 1.07812 5.71814 1.59375C5.21814 2.10938 4.83533 2.73438 4.5697 3.46875C4.30408 4.1875 4.17126 5 4.17126 5.90625V8.625H1.03064C0.890015 8.625 0.772827 8.67188 0.679077 8.76562C0.585327 8.85938 0.538452 8.97656 0.538452 9.11719V13.0547C0.538452 13.1953 0.585327 13.3125 0.679077 13.4062C0.772827 13.5 0.890015 13.5469 1.03064 13.5469H4.17126V23.5078C4.17126 23.6484 4.21814 23.7656 4.31189 23.8594C4.40564 23.9531 4.51501 24 4.64001 24H8.74158C8.86658 24 8.97986 23.9531 9.08142 23.8594C9.18298 23.7656 9.23376 23.6484 9.23376 23.5078V13.5469H12.89C13.015 13.5469 13.1283 13.5 13.2299 13.4062C13.3314 13.3125 13.3822 13.1953 13.3822 13.0547V9.11719C13.3822 9.05469 13.3666 8.99219 13.3353 8.92969C13.3041 8.86719 13.265 8.8125 13.2181 8.76562C13.1869 8.71875 13.14 8.68359 13.0775 8.66016C13.015 8.63672 12.9525 8.625 12.89 8.625H9.23376V6.32812C9.23376 5.76562 9.33533 5.34375 9.53845 5.0625C9.74158 4.78125 10.2025 4.64062 10.9213 4.64062H13.0306C13.1713 4.64062 13.2885 4.59375 13.3822 4.5C13.476 4.40625 13.5228 4.28906 13.5228 4.14844V0.492188C13.5228 0.351562 13.476 0.234375 13.3822 0.140625C13.2885 0.046875 13.1713 0 13.0306 0Z" fill="black"/>
</svg>
