<svg width="9" height="15" viewBox="0 0 9 15" fill="none" xmlns="http://www.w3.org/2000/svg">
<path d="M7.78711 0.677734H5.96875C5.45833 0.677734 4.99805 0.759766 4.58789 0.923828C4.16862 1.07878 3.81315 1.30664 3.52148 1.60742C3.22982 1.9082 3.00651 2.27279 2.85156 2.70117C2.69661 3.12044 2.61914 3.5944 2.61914 4.12305V5.70898H0.787109C0.705078 5.70898 0.636719 5.73633 0.582031 5.79102C0.527344 5.8457 0.5 5.91406 0.5 5.99609V8.29297C0.5 8.375 0.527344 8.44336 0.582031 8.49805C0.636719 8.55273 0.705078 8.58008 0.787109 8.58008H2.61914V14.3906C2.61914 14.4727 2.64648 14.541 2.70117 14.5957C2.75586 14.6504 2.81966 14.6777 2.89258 14.6777H5.28516C5.35807 14.6777 5.42415 14.6504 5.4834 14.5957C5.54264 14.541 5.57227 14.4727 5.57227 14.3906V8.58008H7.70508C7.77799 8.58008 7.84408 8.55273 7.90332 8.49805C7.96256 8.44336 7.99219 8.375 7.99219 8.29297V5.99609C7.99219 5.95964 7.98307 5.92318 7.96484 5.88672C7.94661 5.85026 7.92383 5.81836 7.89648 5.79102C7.87826 5.76367 7.85091 5.74316 7.81445 5.72949C7.77799 5.71582 7.74154 5.70898 7.70508 5.70898H5.57227V4.36914C5.57227 4.04102 5.63151 3.79492 5.75 3.63086C5.86849 3.4668 6.13737 3.38477 6.55664 3.38477H7.78711C7.86914 3.38477 7.9375 3.35742 7.99219 3.30273C8.04688 3.24805 8.07422 3.17969 8.07422 3.09766V0.964844C8.07422 0.882812 8.04688 0.814453 7.99219 0.759766C7.9375 0.705078 7.86914 0.677734 7.78711 0.677734Z" fill="white"/>
</svg>
