<svg width="24" height="24" viewBox="0 0 24 24" fill="none" xmlns="http://www.w3.org/2000/svg">
<path d="M23.9297 7.05469C23.8984 6.41406 23.8359 5.86328 23.7422 5.40234C23.6484 4.94141 23.5234 4.52344 23.3672 4.14844C23.2109 3.74219 23.0195 3.35938 22.793 3C22.5664 2.64062 22.2969 2.3125 21.9844 2.01562C21.6875 1.71875 21.3594 1.45312 21 1.21875C20.6406 0.984375 20.2578 0.789062 19.8516 0.632812C19.4766 0.492188 19.0586 0.371094 18.5977 0.269531C18.1367 0.167969 17.5859 0.101562 16.9453 0.0703125C16.3047 0.0390625 15.7266 0.0195312 15.2109 0.0117188C14.6953 0.00390625 13.625 0 12 0C10.375 0 9.30469 0.00390625 8.78906 0.0117188C8.27344 0.0195312 7.69531 0.0390625 7.05469 0.0703125C6.41406 0.101562 5.86328 0.164062 5.40234 0.257812C4.94141 0.351562 4.52344 0.476562 4.14844 0.632812C3.74219 0.789062 3.35938 0.980469 3 1.20703C2.64062 1.43359 2.3125 1.70312 2.01562 2.01562C1.70312 2.3125 1.42969 2.64062 1.19531 3C0.960938 3.35938 0.773438 3.74219 0.632812 4.14844C0.476562 4.52344 0.351562 4.94141 0.257812 5.40234C0.164062 5.86328 0.101562 6.41406 0.0703125 7.05469C0.0390625 7.69531 0.0195312 8.27344 0.0117188 8.78906C0.00390625 9.30469 0 10.375 0 12C0 13.625 0.00390625 14.6953 0.0117188 15.2109C0.0195312 15.7266 0.0390625 16.3047 0.0703125 16.9453C0.101562 17.5859 0.164062 18.1367 0.257812 18.5977C0.351562 19.0586 0.476562 19.4766 0.632812 19.8516C0.773438 20.2578 0.960938 20.6406 1.19531 21C1.42969 21.3594 1.70312 21.6875 2.01562 21.9844C2.3125 22.2969 2.64062 22.5703 3 22.8047C3.35938 23.0391 3.73438 23.2266 4.125 23.3672C4.51562 23.5234 4.94141 23.6484 5.40234 23.7422C5.86328 23.8359 6.41406 23.8984 7.05469 23.9297C7.69531 23.9609 8.26953 23.9805 8.77734 23.9883C9.28516 23.9961 10.3594 24 12 24C13.625 24 14.6953 23.9961 15.2109 23.9883C15.7266 23.9805 16.3047 23.9609 16.9453 23.9297C17.5859 23.8984 18.1367 23.8359 18.5977 23.7422C19.0586 23.6484 19.4766 23.5234 19.8516 23.3672C20.6641 23.0547 21.375 22.5938 21.9844 21.9844C22.5938 21.375 23.0547 20.6641 23.3672 19.8516C23.5078 19.4766 23.6289 19.0586 23.7305 18.5977C23.832 18.1367 23.8984 17.5859 23.9297 16.9453C23.9453 16.3047 23.9609 15.7266 23.9766 15.2109C23.9922 14.6953 24 13.625 24 12C24 10.375 23.9961 9.30469 23.9883 8.78906C23.9805 8.27344 23.9609 7.69531 23.9297 7.05469ZM21.7734 16.8516C21.7422 17.4453 21.6836 17.9141 21.5977 18.2578C21.5117 18.6016 21.4297 18.875 21.3516 19.0781C21.1484 19.6094 20.8477 20.0703 20.4492 20.4609C20.0508 20.8516 19.5938 21.1484 19.0781 21.3516C18.8594 21.4453 18.5781 21.5312 18.2344 21.6094C17.8906 21.6875 17.4297 21.7422 16.8516 21.7734C16.2109 21.8047 15.6445 21.8242 15.1523 21.832C14.6602 21.8398 13.6094 21.8438 12 21.8438C10.4062 21.8438 9.35938 21.8398 8.85938 21.832C8.35938 21.8242 7.78906 21.8047 7.14844 21.7734C6.57031 21.7422 6.10938 21.6875 5.76562 21.6094C5.42188 21.5312 5.14062 21.4453 4.92188 21.3516C4.67188 21.2578 4.42969 21.1367 4.19531 20.9883C3.96094 20.8398 3.74219 20.6641 3.53906 20.4609C3.35156 20.2734 3.17969 20.0625 3.02344 19.8281C2.86719 19.5938 2.74219 19.3438 2.64844 19.0781C2.57031 18.875 2.48828 18.6016 2.40234 18.2578C2.31641 17.9141 2.26562 17.4453 2.25 16.8516C2.21875 16.2266 2.19922 15.6641 2.19141 15.1641C2.18359 14.6641 2.17969 13.6094 2.17969 12C2.17969 10.4062 2.18359 9.35938 2.19141 8.85938C2.19922 8.35938 2.21875 7.79688 2.25 7.17188C2.26562 6.57812 2.31641 6.10938 2.40234 5.76562C2.48828 5.42188 2.57031 5.14844 2.64844 4.94531C2.74219 4.67969 2.86719 4.42969 3.02344 4.19531C3.17969 3.96094 3.35938 3.75 3.5625 3.5625C3.75 3.35938 3.96094 3.18359 4.19531 3.03516C4.42969 2.88672 4.67188 2.76562 4.92188 2.67188C5.14062 2.57812 5.42188 2.49219 5.76562 2.41406C6.10938 2.33594 6.57031 2.28125 7.14844 2.25C7.78906 2.21875 8.35938 2.19922 8.85938 2.19141C9.35938 2.18359 10.4062 2.17969 12 2.17969C13.6094 2.17969 14.6641 2.18359 15.1641 2.19141C15.6641 2.19922 16.2266 2.21875 16.8516 2.25C17.4453 2.28125 17.9141 2.33594 18.2578 2.41406C18.6016 2.49219 18.875 2.57812 19.0781 2.67188C19.3438 2.76562 19.5938 2.88672 19.8281 3.03516C20.0625 3.18359 20.2734 3.35938 20.4609 3.5625C20.6641 3.75 20.8398 3.96094 20.9883 4.19531C21.1367 4.42969 21.2578 4.67969 21.3516 4.94531C21.4297 5.14844 21.5117 5.42188 21.5977 5.76562C21.6836 6.10938 21.7422 6.57812 21.7734 7.17188C21.8047 7.79688 21.8242 8.35938 21.832 8.85938C21.8398 9.35938 21.8438 10.4062 21.8438 12C21.8438 13.6094 21.8398 14.6641 21.832 15.1641C21.8242 15.6641 21.8047 16.2266 21.7734 16.8516ZM12 5.83594C11.1406 5.83594 10.3438 6 9.60938 6.32812C8.85938 6.64062 8.20312 7.07812 7.64062 7.64062C7.07812 8.20312 6.64062 8.85938 6.32812 9.60938C6 10.3594 5.83594 11.1562 5.83594 12C5.83594 12.8594 6 13.6562 6.32812 14.3906C6.64062 15.1406 7.07812 15.7969 7.64062 16.3594C8.20312 16.9219 8.85938 17.3594 9.60938 17.6719C10.3438 18 11.1406 18.1641 12 18.1641C12.8438 18.1641 13.6406 18 14.3906 17.6719C15.1406 17.3594 15.7969 16.9219 16.3594 16.3594C16.9219 15.7969 17.3594 15.1406 17.6719 14.3906C18 13.6562 18.1641 12.8594 18.1641 12C18.1641 11.1562 18 10.3594 17.6719 9.60938C17.3594 8.85938 16.9219 8.20312 16.3594 7.64062C15.7969 7.07812 15.1406 6.64062 14.3906 6.32812C13.6406 6 12.8438 5.83594 12 5.83594ZM12 16.0078C10.8906 16.0078 9.94531 15.6172 9.16406 14.8359C8.38281 14.0547 7.99219 13.1094 7.99219 12C7.99219 10.8906 8.38281 9.94531 9.16406 9.16406C9.94531 8.38281 10.8906 7.99219 12 7.99219C13.1094 7.99219 14.0547 8.38281 14.8359 9.16406C15.6172 9.94531 16.0078 10.8906 16.0078 12C16.0078 13.1094 15.6172 14.0547 14.8359 14.8359C14.0547 15.6172 13.1094 16.0078 12 16.0078ZM19.8516 5.60156C19.8516 5.99219 19.7109 6.32812 19.4297 6.60938C19.1484 6.89062 18.8047 7.03125 18.3984 7.03125C18.0078 7.03125 17.6719 6.89062 17.3906 6.60938C17.1094 6.32812 16.9688 5.99219 16.9688 5.60156C16.9688 5.19531 17.1094 4.85156 17.3906 4.57031C17.6719 4.28906 18.0078 4.14844 18.3984 4.14844C18.8047 4.14844 19.1484 4.28906 19.4297 4.57031C19.7109 4.85156 19.8516 5.19531 19.8516 5.60156Z" fill="black"/>
</svg>
