<svg width="14" height="15" viewBox="0 0 14 15" fill="none" xmlns="http://www.w3.org/2000/svg">
<path d="M13.959 4.61523C13.9408 4.24154 13.9043 3.92025 13.8496 3.65137C13.7949 3.38249 13.722 3.13867 13.6309 2.91992C13.5397 2.68294 13.4281 2.45964 13.2959 2.25C13.1637 2.04036 13.0065 1.84896 12.8242 1.67578C12.651 1.5026 12.4596 1.34766 12.25 1.21094C12.0404 1.07422 11.8171 0.960286 11.5801 0.869141C11.3613 0.787109 11.1175 0.716472 10.8486 0.657227C10.5798 0.597981 10.2585 0.559245 9.88477 0.541016C9.51107 0.522786 9.17383 0.511394 8.87305 0.506836C8.57227 0.502278 7.94792 0.5 7 0.5C6.05208 0.5 5.42773 0.502278 5.12695 0.506836C4.82617 0.511394 4.48893 0.522786 4.11523 0.541016C3.74154 0.559245 3.42025 0.595703 3.15137 0.650391C2.88249 0.705078 2.63867 0.777995 2.41992 0.869141C2.18294 0.960286 1.95964 1.07194 1.75 1.2041C1.54036 1.33626 1.34896 1.49349 1.17578 1.67578C0.99349 1.84896 0.833984 2.04036 0.697266 2.25C0.560547 2.45964 0.451172 2.68294 0.369141 2.91992C0.277995 3.13867 0.205078 3.38249 0.150391 3.65137C0.0957031 3.92025 0.0592448 4.24154 0.0410156 4.61523C0.0227865 4.98893 0.0113932 5.32617 0.00683594 5.62695C0.00227865 5.92773 0 6.55208 0 7.5C0 8.44792 0.00227865 9.07227 0.00683594 9.37305C0.0113932 9.67383 0.0227865 10.0111 0.0410156 10.3848C0.0592448 10.7585 0.0957031 11.0798 0.150391 11.3486C0.205078 11.6175 0.277995 11.8613 0.369141 12.0801C0.451172 12.3171 0.560547 12.5404 0.697266 12.75C0.833984 12.9596 0.99349 13.151 1.17578 13.3242C1.34896 13.5065 1.54036 13.666 1.75 13.8027C1.95964 13.9395 2.17839 14.0488 2.40625 14.1309C2.63411 14.222 2.88249 14.2949 3.15137 14.3496C3.42025 14.4043 3.74154 14.4408 4.11523 14.459C4.48893 14.4772 4.82389 14.4886 5.12012 14.4932C5.41634 14.4977 6.04297 14.5 7 14.5C7.94792 14.5 8.57227 14.4977 8.87305 14.4932C9.17383 14.4886 9.51107 14.4772 9.88477 14.459C10.2585 14.4408 10.5798 14.4043 10.8486 14.3496C11.1175 14.2949 11.3613 14.222 11.5801 14.1309C12.054 13.9486 12.4688 13.6797 12.8242 13.3242C13.1797 12.9688 13.4486 12.554 13.6309 12.0801C13.7129 11.8613 13.7835 11.6175 13.8428 11.3486C13.902 11.0798 13.9408 10.7585 13.959 10.3848C13.9681 10.0111 13.9772 9.67383 13.9863 9.37305C13.9954 9.07227 14 8.44792 14 7.5C14 6.55208 13.9977 5.92773 13.9932 5.62695C13.9886 5.32617 13.9772 4.98893 13.959 4.61523ZM12.7012 10.3301C12.6829 10.6764 12.6488 10.9499 12.5986 11.1504C12.5485 11.3509 12.5007 11.5104 12.4551 11.6289C12.3366 11.9388 12.1611 12.2077 11.9287 12.4355C11.6963 12.6634 11.4297 12.8366 11.1289 12.9551C11.0013 13.0098 10.8372 13.0599 10.6367 13.1055C10.4362 13.151 10.1673 13.1829 9.83008 13.2012C9.45638 13.2194 9.12598 13.2308 8.83887 13.2354C8.55176 13.2399 7.9388 13.2422 7 13.2422C6.07031 13.2422 5.45964 13.2399 5.16797 13.2354C4.8763 13.2308 4.54362 13.2194 4.16992 13.2012C3.83268 13.1829 3.5638 13.151 3.36328 13.1055C3.16276 13.0599 2.9987 13.0098 2.87109 12.9551C2.72526 12.9004 2.58398 12.8298 2.44727 12.7432C2.31055 12.6566 2.18294 12.554 2.06445 12.4355C1.95508 12.3262 1.85482 12.2031 1.76367 12.0664C1.67253 11.9297 1.59961 11.7839 1.54492 11.6289C1.49935 11.5104 1.4515 11.3509 1.40137 11.1504C1.35124 10.9499 1.32161 10.6764 1.3125 10.3301C1.29427 9.96549 1.28288 9.63737 1.27832 9.3457C1.27376 9.05404 1.27148 8.4388 1.27148 7.5C1.27148 6.57031 1.27376 5.95964 1.27832 5.66797C1.28288 5.3763 1.29427 5.04818 1.3125 4.68359C1.32161 4.33724 1.35124 4.0638 1.40137 3.86328C1.4515 3.66276 1.49935 3.50325 1.54492 3.38477C1.59961 3.22982 1.67253 3.08398 1.76367 2.94727C1.85482 2.81055 1.95964 2.6875 2.07812 2.57812C2.1875 2.45964 2.31055 2.3571 2.44727 2.27051C2.58398 2.18392 2.72526 2.11328 2.87109 2.05859C2.9987 2.00391 3.16276 1.95378 3.36328 1.9082C3.5638 1.86263 3.83268 1.83073 4.16992 1.8125C4.54362 1.79427 4.8763 1.78288 5.16797 1.77832C5.45964 1.77376 6.07031 1.77148 7 1.77148C7.9388 1.77148 8.55404 1.77376 8.8457 1.77832C9.13737 1.78288 9.4655 1.79427 9.83008 1.8125C10.1764 1.83073 10.4499 1.86263 10.6504 1.9082C10.8509 1.95378 11.0104 2.00391 11.1289 2.05859C11.2839 2.11328 11.4297 2.18392 11.5664 2.27051C11.7031 2.3571 11.8262 2.45964 11.9355 2.57812C12.054 2.6875 12.1566 2.81055 12.2432 2.94727C12.3298 3.08398 12.4004 3.22982 12.4551 3.38477C12.5007 3.50325 12.5485 3.66276 12.5986 3.86328C12.6488 4.0638 12.6829 4.33724 12.7012 4.68359C12.7194 5.04818 12.7308 5.3763 12.7354 5.66797C12.7399 5.95964 12.7422 6.57031 12.7422 7.5C12.7422 8.4388 12.7399 9.05404 12.7354 9.3457C12.7308 9.63737 12.7194 9.96549 12.7012 10.3301ZM7 3.9043C6.4987 3.9043 6.03385 4 5.60547 4.19141C5.16797 4.3737 4.78516 4.62891 4.45703 4.95703C4.12891 5.28516 3.8737 5.66797 3.69141 6.10547C3.5 6.54297 3.4043 7.00781 3.4043 7.5C3.4043 8.0013 3.5 8.46615 3.69141 8.89453C3.8737 9.33203 4.12891 9.71484 4.45703 10.043C4.78516 10.3711 5.16797 10.6263 5.60547 10.8086C6.03385 11 6.4987 11.0957 7 11.0957C7.49219 11.0957 7.95703 11 8.39453 10.8086C8.83203 10.6263 9.21484 10.3711 9.54297 10.043C9.87109 9.71484 10.1263 9.33203 10.3086 8.89453C10.5 8.46615 10.5957 8.0013 10.5957 7.5C10.5957 7.00781 10.5 6.54297 10.3086 6.10547C10.1263 5.66797 9.87109 5.28516 9.54297 4.95703C9.21484 4.62891 8.83203 4.3737 8.39453 4.19141C7.95703 4 7.49219 3.9043 7 3.9043ZM7 9.83789C6.35286 9.83789 5.80143 9.61003 5.3457 9.1543C4.88997 8.69857 4.66211 8.14714 4.66211 7.5C4.66211 6.85286 4.88997 6.30143 5.3457 5.8457C5.80143 5.38997 6.35286 5.16211 7 5.16211C7.64714 5.16211 8.19857 5.38997 8.6543 5.8457C9.11003 6.30143 9.33789 6.85286 9.33789 7.5C9.33789 8.14714 9.11003 8.69857 8.6543 9.1543C8.19857 9.61003 7.64714 9.83789 7 9.83789ZM11.5801 3.76758C11.5801 3.99544 11.498 4.19141 11.334 4.35547C11.1699 4.51953 10.9694 4.60156 10.7324 4.60156C10.5046 4.60156 10.3086 4.51953 10.1445 4.35547C9.98047 4.19141 9.89844 3.99544 9.89844 3.76758C9.89844 3.5306 9.98047 3.33008 10.1445 3.16602C10.3086 3.00195 10.5046 2.91992 10.7324 2.91992C10.9694 2.91992 11.1699 3.00195 11.334 3.16602C11.498 3.33008 11.5801 3.5306 11.5801 3.76758Z" fill="white"/>
</svg>
