<svg width="37" height="49" viewBox="0 0 37 49" fill="none" xmlns="http://www.w3.org/2000/svg">
<path d="M5.70023 1.40595L9.57423 0.237954C10.8528 -0.146913 12.2277 -0.053533 13.4424 0.500676C14.6572 1.05488 15.6289 2.03207 16.1762 3.24995L18.8922 9.28996C19.3636 10.3378 19.495 11.507 19.268 12.6333C19.0409 13.7596 18.4668 14.7866 17.6262 15.57L13.4922 19.422C12.9382 19.948 13.3582 21.998 15.3822 25.506C17.4082 29.016 18.9742 30.404 19.6962 30.188L25.1122 28.532C26.2101 28.1962 27.3854 28.2123 28.4736 28.5781C29.5618 28.944 30.5082 29.6412 31.1802 30.572L35.0402 35.922C35.8199 37.0023 36.1809 38.3289 36.0562 39.6553C35.9315 40.9818 35.3296 42.2179 34.3622 43.134L31.3782 45.96C30.4149 46.8722 29.2269 47.5126 27.9353 47.8158C26.6437 48.119 25.2948 48.0742 24.0262 47.686C17.7742 45.772 11.9842 40.092 6.57823 30.726C1.16023 21.346 -0.885774 13.434 0.540227 6.96996C0.827836 5.66746 1.45761 4.46524 2.36462 3.48721C3.27163 2.50918 4.42306 1.79075 5.70023 1.40595Z" fill="#888888"/>
</svg>
