<svg width="20" height="24" viewBox="0 0 20 24" fill="none" xmlns="http://www.w3.org/2000/svg">
<path d="M10.3647 0C8.72435 0 7.28713 0.265574 6.053 0.796719C4.83449 1.32787 3.81125 2.00742 2.98328 2.83538C2.15532 3.66335 1.53825 4.58504 1.13208 5.60047C0.725912 6.63152 0.522827 7.63132 0.522827 8.59988C0.522827 9.78715 0.749345 10.8651 1.20238 11.8336C1.65542 12.8022 2.36622 13.4817 3.33478 13.8723C3.491 13.9348 3.6355 13.9348 3.76829 13.8723C3.90107 13.8098 3.9909 13.6926 4.03777 13.5208C4.06901 13.3958 4.11197 13.2123 4.16665 12.9701C4.22132 12.728 4.27209 12.5444 4.31896 12.4194C4.3502 12.2476 4.35411 12.1148 4.33068 12.0211C4.30724 11.9274 4.23304 11.8024 4.10806 11.6462C3.82687 11.3181 3.60426 10.9354 3.44023 10.4979C3.2762 10.0605 3.19418 9.54501 3.19418 8.95138C3.19418 8.07655 3.3504 7.24077 3.66284 6.44405C3.9909 5.64733 4.44784 4.94435 5.03366 4.33509C5.61949 3.72583 6.32638 3.24155 7.15434 2.88225C7.99793 2.52294 8.94306 2.34329 9.98973 2.34329C10.9114 2.34329 11.7316 2.47608 12.4502 2.74165C13.1532 3.00723 13.7507 3.37825 14.2428 3.85472C14.7349 4.33118 15.1059 4.88967 15.3559 5.53017C15.6058 6.17067 15.7308 6.87366 15.7308 7.63913C15.7308 8.62331 15.6214 9.56063 15.4027 10.4511C15.1996 11.3415 14.9067 12.1187 14.524 12.7827C14.1413 13.4466 13.6765 13.9738 13.1297 14.3644C12.5986 14.7549 12.005 14.9502 11.3488 14.9502C10.6302 14.9502 10.0444 14.6924 9.59137 14.1769C9.13833 13.6614 8.99773 13.0365 9.16958 12.3023C9.38828 11.4275 9.64605 10.5526 9.94286 9.6778C10.2397 8.80297 10.3881 8.0453 10.3881 7.4048C10.3881 6.84241 10.2358 6.35813 9.93115 5.95196C9.62652 5.54579 9.16177 5.34271 8.53689 5.34271C7.80266 5.34271 7.17387 5.68248 6.65054 6.36204C6.1272 7.04159 5.86553 7.88908 5.86553 8.90451C5.86553 9.56063 5.93974 10.0879 6.08815 10.4862C6.23656 10.8846 6.31076 11.0838 6.31076 11.0838C6.31076 11.0838 6.23265 11.4275 6.07643 12.1148C5.92021 12.7866 5.73665 13.5559 5.52576 14.423C5.31486 15.29 5.11568 16.1375 4.92822 16.9654C4.74075 17.7778 4.61578 18.3245 4.55329 18.6057C4.28772 19.7149 4.20961 20.828 4.31896 21.9449C4.42831 23.0619 4.4908 23.6907 4.50642 23.8313C4.52205 23.925 4.56891 23.9797 4.64702 23.9953C4.72513 24.0109 4.78762 23.9875 4.83449 23.925C4.89697 23.8313 5.25237 23.3275 5.90068 22.4136C6.54899 21.4997 7.02156 20.496 7.31838 19.4025C7.39648 19.1056 7.57614 18.4027 7.85733 17.2935C8.13853 16.1843 8.27912 15.6298 8.27912 15.6298C8.52908 16.0828 8.96649 16.4812 9.59137 16.8248C10.2162 17.1685 10.9036 17.3404 11.6535 17.3404C12.7626 17.3404 13.7702 17.0982 14.6763 16.6139C15.598 16.1453 16.383 15.4892 17.0313 14.6456C17.6796 13.802 18.1834 12.8022 18.5427 11.6462C18.9021 10.4901 19.0817 9.24038 19.0817 7.89689C19.0817 6.86585 18.8786 5.87385 18.4724 4.92091C18.0507 3.9836 17.4609 3.14782 16.7033 2.41359C15.9456 1.67936 15.0278 1.09354 13.9499 0.656122C12.872 0.218706 11.6769 0 10.3647 0Z" fill="black"/>
</svg>
