<svg width="26" height="26" viewBox="0 0 26 26" fill="none" xmlns="http://www.w3.org/2000/svg">
<path opacity="0.5" d="M24.8636 17.8008C25.2542 17.9961 25.5472 18.4355 25.5472 18.9238C25.5472 18.9727 25.5472 19.0703 25.5472 19.168L24.3753 24.2461C24.2288 24.7832 23.7894 25.125 23.2523 25.125C10.7034 25.125 0.596001 15.0176 0.596001 2.46875C0.596001 1.93164 0.937798 1.49219 1.47491 1.3457L6.55303 0.173828C6.65069 0.173828 6.74834 0.125 6.79717 0.125C7.28545 0.125 7.72491 0.417969 7.92022 0.857422L10.264 6.32617C10.3128 6.47266 10.3616 6.61914 10.3616 6.76562C10.3616 7.15625 10.1663 7.49805 9.92217 7.69336L6.94366 10.1348C8.7503 13.9434 11.7776 16.9707 15.5862 18.7773L18.0276 15.7988C18.223 15.5547 18.5648 15.3594 18.9065 15.3594C19.1019 15.3594 19.2483 15.4082 19.3948 15.457L24.8636 17.8008Z" fill="black"/>
</svg>
