<svg width="30" height="24" viewBox="0 0 30 24" fill="none" xmlns="http://www.w3.org/2000/svg">
<path d="M29.5385 2.82692C29 3.07692 28.4375 3.28365 27.851 3.44711C27.2644 3.61058 26.6635 3.72115 26.0481 3.77885C26.6827 3.41346 27.2308 2.94231 27.6923 2.36539C28.1538 1.78846 28.5 1.14423 28.7308 0.432692C28.1346 0.778847 27.5144 1.07692 26.8702 1.32692C26.226 1.57692 25.5577 1.76923 24.8654 1.90385C24.3077 1.32692 23.649 0.865385 22.8894 0.51923C22.1298 0.173077 21.3173 0 20.4519 0C19.6058 0 18.8173 0.153847 18.0865 0.461538C17.3558 0.788462 16.7163 1.22596 16.1683 1.77404C15.6202 2.32211 15.1827 2.96154 14.8558 3.69231C14.5481 4.42308 14.3942 5.21154 14.3942 6.05769C14.3942 6.28846 14.4087 6.51923 14.4375 6.75C14.4663 6.98077 14.5 7.21154 14.5385 7.44231C13.2885 7.36539 12.0769 7.17308 10.9038 6.86539C9.71154 6.53846 8.58654 6.10096 7.52885 5.55289C6.47115 5.00481 5.48077 4.35577 4.55769 3.60577C3.63462 2.85577 2.79808 2.01923 2.04808 1.09615C1.79808 1.55769 1.60096 2.04327 1.45673 2.55289C1.3125 3.0625 1.24038 3.59615 1.24038 4.15385C1.24038 5.21154 1.48558 6.17789 1.97596 7.05289C2.46635 7.92789 3.11538 8.64423 3.92308 9.20192C3.44231 9.18269 2.96635 9.10577 2.49519 8.97115C2.02404 8.83654 1.58654 8.65385 1.18269 8.42308V8.50961C1.18269 9.97115 1.64904 11.2548 2.58173 12.3606C3.51442 13.4663 4.67308 14.1635 6.05769 14.4519C5.78846 14.5096 5.52404 14.5577 5.26442 14.5962C5.00481 14.6346 4.73077 14.6538 4.44231 14.6538C4.25 14.6538 4.05769 14.6442 3.86538 14.625C3.67308 14.6058 3.49038 14.5769 3.31731 14.5385C3.70192 15.75 4.40865 16.75 5.4375 17.5385C6.46635 18.3269 7.64423 18.7308 8.97115 18.75C7.93269 19.5769 6.77404 20.2163 5.49519 20.6683C4.21635 21.1202 2.86538 21.3462 1.44231 21.3462C1.19231 21.3462 0.947115 21.3413 0.706731 21.3317C0.466346 21.3221 0.230769 21.2981 0 21.2596C0.673077 21.7019 1.375 22.0865 2.10577 22.4135C2.83654 22.7596 3.59135 23.0481 4.37019 23.2788C5.14904 23.5096 5.95192 23.6827 6.77885 23.7981C7.60577 23.9327 8.44231 24 9.28846 24C12.0769 24 14.5385 23.4712 16.6731 22.4135C18.8269 21.375 20.6346 20.0288 22.0962 18.375C23.5577 16.7212 24.6635 14.875 25.4135 12.8365C26.1635 10.7788 26.5385 8.75 26.5385 6.75L26.5096 5.97115C27.1058 5.54808 27.6587 5.07211 28.1683 4.54327C28.6779 4.01442 29.1346 3.44231 29.5385 2.82692Z" fill="black"/>
</svg>
