<svg width="60" height="60" viewBox="0 0 60 60" fill="none" xmlns="http://www.w3.org/2000/svg">
<path d="M60 10.8497C59.5987 11.697 58.8517 12.7673 57.7592 14.0604C56.6667 15.3536 55.3178 16.4907 53.7123 17.4718C53.757 17.8286 53.7905 18.163 53.8127 18.4751C53.9859 23.2811 52.8347 28.2675 51.2375 32.4216C48.1416 40.1453 43.3977 46.3614 36.622 50.5821C29.5563 54.635 21.3274 55.497 13.7458 54.7627C8.7125 54.1847 3.75165 52.5411 0 49.445C6.86165 50.2652 13.2652 47.931 18.3277 44.1607C12.7041 44.303 8.6182 40.235 6.689 35.5319C7.55865 35.7599 8.4684 35.7324 9.2977 35.6658C10.3185 35.5699 11.2875 35.4741 12.2409 35.2645C8.655 34.1075 5.5174 31.9807 3.87965 28.7761C2.919 26.7456 2.48525 24.812 2.475 22.6223C4.15525 23.5069 6.1764 24.3691 8.02685 24.2945C5.23225 21.9271 2.99185 18.9016 2.57535 15.4316C2.3124 12.5383 3.0364 9.89718 4.0804 7.43828C8.26075 12.0325 12.9512 15.8134 18.3613 18.1406C22.0612 19.6557 25.7506 20.466 29.5654 20.4817C29.125 17.0745 29.4674 13.7792 31.0704 10.9834C32.9569 7.97748 35.7093 6.23348 38.7962 5.36463C43.2131 4.23203 47.521 5.83188 50.2344 8.90978C53.1604 8.59373 55.9634 7.29563 58.1942 5.96663C57.2463 8.83713 55.4005 11.6912 52.7093 13.0569C55.2716 12.5825 57.7167 11.824 60 10.8497V10.8497Z" fill="#888888"/>
</svg>
