<svg width="14" height="13" viewBox="0 0 14 13" fill="none" xmlns="http://www.w3.org/2000/svg">
<path d="M14 2.33008C13.7448 2.44857 13.4782 2.54655 13.2002 2.62402C12.9222 2.7015 12.6374 2.75391 12.3457 2.78125C12.6465 2.60807 12.9062 2.38477 13.125 2.11133C13.3438 1.83789 13.5078 1.53255 13.6172 1.19531C13.3346 1.35938 13.0407 1.50065 12.7354 1.61914C12.43 1.73763 12.1133 1.82878 11.7852 1.89258C11.5208 1.61914 11.2087 1.40039 10.8486 1.23633C10.4886 1.07227 10.1035 0.990234 9.69336 0.990234C9.29232 0.990234 8.91862 1.06315 8.57227 1.20898C8.22591 1.36393 7.92285 1.57129 7.66309 1.83105C7.40332 2.09082 7.19596 2.39388 7.04102 2.74023C6.89518 3.08659 6.82227 3.46029 6.82227 3.86133C6.82227 3.9707 6.8291 4.08008 6.84277 4.18945C6.85645 4.29883 6.8724 4.4082 6.89062 4.51758C6.29818 4.48112 5.72396 4.38997 5.16797 4.24414C4.60286 4.08919 4.06966 3.88184 3.56836 3.62207C3.06706 3.3623 2.59766 3.05469 2.16016 2.69922C1.72266 2.34375 1.32617 1.94727 0.970703 1.50977C0.852214 1.72852 0.758789 1.95866 0.69043 2.2002C0.62207 2.44173 0.587891 2.69466 0.587891 2.95898C0.587891 3.46029 0.704102 3.91829 0.936523 4.33301C1.16895 4.74772 1.47656 5.08724 1.85938 5.35156C1.63151 5.34245 1.40592 5.30599 1.18262 5.24219C0.95931 5.17839 0.751953 5.0918 0.560547 4.98242V5.02344C0.560547 5.71615 0.781576 6.32454 1.22363 6.84863C1.66569 7.37272 2.21484 7.70312 2.87109 7.83984C2.74349 7.86719 2.61816 7.88997 2.49512 7.9082C2.37207 7.92643 2.24219 7.93555 2.10547 7.93555C2.01432 7.93555 1.92318 7.93099 1.83203 7.92188C1.74089 7.91276 1.6543 7.89909 1.57227 7.88086C1.75456 8.45508 2.08952 8.92904 2.57715 9.30273C3.06478 9.67643 3.62305 9.86784 4.25195 9.87695C3.75977 10.2689 3.21061 10.5719 2.60449 10.7861C1.99837 11.0003 1.35807 11.1074 0.683594 11.1074C0.565104 11.1074 0.448893 11.1051 0.334961 11.1006C0.221029 11.096 0.109375 11.0846 0 11.0664C0.31901 11.276 0.651693 11.4583 0.998047 11.6133C1.3444 11.7773 1.70215 11.9141 2.07129 12.0234C2.44043 12.1328 2.82096 12.2148 3.21289 12.2695C3.60482 12.3333 4.0013 12.3652 4.40234 12.3652C5.72396 12.3652 6.89062 12.1146 7.90234 11.6133C8.92318 11.1211 9.77995 10.4831 10.4727 9.69922C11.1654 8.91536 11.6895 8.04036 12.0449 7.07422C12.4004 6.09896 12.5781 5.13737 12.5781 4.18945L12.5645 3.82031C12.847 3.61979 13.109 3.39421 13.3506 3.14355C13.5921 2.8929 13.8086 2.62175 14 2.33008Z" fill="white"/>
</svg>
