<svg width="60" height="60" viewBox="0 0 60 60" fill="none" xmlns="http://www.w3.org/2000/svg">
<path d="M30.0049 52.6024C23.8549 52.6024 23.1299 52.57 20.7299 52.465C18.8583 52.4035 17.011 52.023 15.2674 51.3399C13.7753 50.7593 12.4203 49.8747 11.2884 48.7424C10.1565 47.6101 9.27247 46.2547 8.69238 44.7625C8.03565 43.0126 7.68143 41.1637 7.64488 39.295C7.50488 36.9 7.50488 36.115 7.50488 30.0125C7.50488 23.845 7.53738 23.125 7.64488 20.7375C7.68223 18.8713 8.03644 17.025 8.69238 15.2775C9.2718 13.7833 10.1565 12.4264 11.2899 11.2934C12.4233 10.1604 13.7805 9.2763 15.2749 8.69745C17.0215 8.03796 18.8682 7.68281 20.7349 7.64745C23.1224 7.51245 23.9074 7.51245 30.0049 7.51245C36.2049 7.51245 36.9174 7.54495 39.2799 7.64745C41.1499 7.68245 43.0049 8.03745 44.7549 8.69745C46.2489 9.27697 47.6058 10.1614 48.7391 11.2942C49.8724 12.4271 50.7573 13.7837 51.3374 15.2775C52.0049 17.0525 52.3624 18.9275 52.3899 20.82C52.5299 23.215 52.5299 23.9974 52.5299 30.0975C52.5299 36.1975 52.4949 36.9975 52.3899 39.365C52.3525 41.2354 51.9975 43.086 51.3399 44.8374C50.7583 46.3308 49.8726 47.6868 48.739 48.8196C47.6054 49.9523 46.2486 50.837 44.7549 51.4174C43.0049 52.0725 41.1574 52.4274 39.2899 52.465C36.9024 52.6024 36.1199 52.6024 30.0049 52.6024ZM29.9199 11.47C23.8049 11.47 23.1699 11.5 20.7824 11.6075C19.3565 11.6261 17.9444 11.8891 16.6074 12.385C15.6322 12.7587 14.7462 13.3327 14.0064 14.0699C13.2667 14.8071 12.6896 15.6911 12.3124 16.665C11.8124 18.015 11.5499 19.4425 11.5349 20.8825C11.4024 23.3049 11.4024 23.94 11.4024 30.0125C11.4024 36.0125 11.4249 36.74 11.5349 39.1475C11.5574 40.5725 11.8199 41.985 12.3124 43.3225C13.0774 45.29 14.6374 46.845 16.6099 47.6C17.9452 48.0989 19.357 48.362 20.7824 48.3775C23.2024 48.5175 23.8399 48.5175 29.9199 48.5175C36.0524 48.5175 36.6874 48.4875 39.0549 48.3775C40.4809 48.3602 41.8933 48.0972 43.2299 47.6C44.1999 47.2233 45.0808 46.6489 45.8168 45.9134C46.5528 45.1778 47.1277 44.2972 47.5049 43.3274C48.0049 41.9774 48.2674 40.5475 48.2824 39.1075H48.3099C48.4174 36.7174 48.4174 36.08 48.4174 29.9725C48.4174 23.865 48.3899 23.2225 48.2824 20.8349C48.2598 19.4111 47.9969 18.0013 47.5049 16.665C47.1285 15.6938 46.5541 14.8117 45.818 14.0748C45.082 13.3379 44.2006 12.7624 43.2299 12.385C41.8936 11.8867 40.481 11.6236 39.0549 11.6075C36.6374 11.47 36.0049 11.47 29.9199 11.47ZM30.0049 41.56C27.7188 41.5614 25.4837 40.8849 23.5821 39.616C21.6805 38.347 20.198 36.5427 19.322 34.4311C18.4461 32.3195 18.216 29.9956 18.6609 27.7532C19.1058 25.5109 20.2057 23.4508 21.8215 21.8336C23.4373 20.2164 25.4964 19.1147 27.7383 18.6679C29.9803 18.221 32.3044 18.4491 34.4168 19.3233C36.5291 20.1974 38.3348 21.6784 39.6054 23.5788C40.8759 25.4793 41.5544 27.7139 41.5549 30C41.5509 33.0629 40.3331 35.9994 38.1682 38.1662C36.0033 40.333 33.0678 41.5533 30.0049 41.56ZM30.0049 22.495C28.5215 22.495 27.0715 22.9348 25.8381 23.7589C24.6047 24.583 23.6434 25.7544 23.0758 27.1248C22.5081 28.4953 22.3596 30.0033 22.649 31.4581C22.9384 32.913 23.6527 34.2494 24.7016 35.2983C25.7505 36.3471 27.0868 37.0615 28.5417 37.3508C29.9966 37.6402 31.5046 37.4917 32.875 36.924C34.2455 36.3564 35.4168 35.3951 36.2409 34.1617C37.065 32.9284 37.5049 31.4783 37.5049 29.995C37.5003 28.0072 36.7086 26.1023 35.3031 24.6968C33.8976 23.2912 31.9926 22.4996 30.0049 22.495ZM42.0049 20.7125C41.651 20.7111 41.3008 20.6401 40.9743 20.5035C40.6478 20.3668 40.3515 20.1672 40.1022 19.916C39.5986 19.4087 39.3172 18.7222 39.3199 18.0075C39.3225 17.2927 39.609 16.6083 40.1163 16.1047C40.6236 15.6012 41.3101 15.3198 42.0249 15.3225C42.7396 15.3251 43.4241 15.6116 43.9276 16.1189C44.4311 16.6262 44.7125 17.3127 44.7099 18.0275C44.7072 18.7422 44.4208 19.4266 43.9135 19.9302C43.4062 20.4337 42.7196 20.7151 42.0049 20.7125Z" fill="#888888"/>
</svg>
