<svg width="48" height="38" viewBox="0 0 48 38" fill="none" xmlns="http://www.w3.org/2000/svg">
<path d="M42.6665 0.333374H5.33317C2.7665 0.333374 0.689837 2.43337 0.689837 5.00004L0.666504 33C0.666504 35.5667 2.7665 37.6667 5.33317 37.6667H42.6665C45.2332 37.6667 47.3332 35.5667 47.3332 33V5.00004C47.3332 2.43337 45.2332 0.333374 42.6665 0.333374ZM41.7332 10.25L25.2365 20.5634C24.4898 21.03 23.5098 21.03 22.7632 20.5634L6.2665 10.25C6.03254 10.1187 5.82765 9.94125 5.66424 9.72843C5.50084 9.51562 5.38232 9.27186 5.31585 9.01191C5.24938 8.75196 5.23634 8.48122 5.27754 8.21609C5.31873 7.95096 5.41329 7.69694 5.55549 7.46941C5.6977 7.24188 5.88459 7.04557 6.10487 6.89236C6.32514 6.73915 6.5742 6.63223 6.83699 6.57807C7.09978 6.52391 7.37083 6.52363 7.63373 6.57725C7.89663 6.63088 8.14592 6.73729 8.3665 6.89004L23.9998 16.6667L39.6332 6.89004C39.8538 6.73729 40.103 6.63088 40.3659 6.57725C40.6288 6.52363 40.8999 6.52391 41.1627 6.57807C41.4255 6.63223 41.6745 6.73915 41.8948 6.89236C42.1151 7.04557 42.302 7.24188 42.4442 7.46941C42.5864 7.69694 42.681 7.95096 42.7221 8.21609C42.7633 8.48122 42.7503 8.75196 42.6838 9.01191C42.6174 9.27186 42.4988 9.51562 42.3354 9.72843C42.172 9.94125 41.9671 10.1187 41.7332 10.25Z" fill="#888888"/>
</svg>
