<svg width="26" height="26" viewBox="0 0 26 26" fill="none" xmlns="http://www.w3.org/2000/svg">
<path d="M24.3676 17.8008C24.7582 17.9961 25.0512 18.4355 25.0512 18.9238C25.0512 18.9727 25.0512 19.0703 25.0512 19.168L23.8793 24.2461C23.7328 24.7832 23.2934 25.125 22.7563 25.125C10.2074 25.125 0.1 15.0176 0.1 2.46875C0.1 1.93164 0.441797 1.49219 0.978907 1.3457L6.05703 0.173828C6.15469 0.173828 6.25234 0.125 6.30117 0.125C6.78945 0.125 7.22891 0.417969 7.42422 0.857422L9.76797 6.32617C9.8168 6.47266 9.86563 6.61914 9.86563 6.76562C9.86563 7.15625 9.67031 7.49805 9.42617 7.69336L6.44766 10.1348C8.2543 13.9434 11.2816 16.9707 15.0902 18.7773L17.5316 15.7988C17.727 15.5547 18.0688 15.3594 18.4105 15.3594C18.6059 15.3594 18.7523 15.4082 18.8988 15.457L24.3676 17.8008Z" fill="#AD832D"/>
</svg>
