<svg width="12" height="15" viewBox="0 0 12 15" fill="none" xmlns="http://www.w3.org/2000/svg">
<path d="M6.24219 0.677748C5.28516 0.677748 4.44661 0.832694 3.72656 1.14259C3.01562 1.45249 2.41862 1.84897 1.93555 2.33204C1.45247 2.81512 1.09245 3.35288 0.855469 3.94532C0.61849 4.54689 0.5 5.13022 0.5 5.69532C0.5 6.38803 0.632161 7.01694 0.896484 7.58204C1.16081 8.14715 1.57552 8.54363 2.14062 8.7715C2.23177 8.80795 2.31608 8.80795 2.39355 8.7715C2.47103 8.73504 2.52344 8.66668 2.55078 8.56642C2.56901 8.4935 2.59408 8.38641 2.62598 8.24513C2.65788 8.10385 2.6875 7.99676 2.71484 7.92384C2.73307 7.82358 2.73535 7.74611 2.72168 7.69142C2.70801 7.63673 2.66471 7.56381 2.5918 7.47267C2.42773 7.28126 2.29785 7.05795 2.20215 6.80275C2.10645 6.54754 2.05859 6.24676 2.05859 5.9004C2.05859 5.38999 2.14974 4.90236 2.33203 4.43751C2.52344 3.97267 2.79004 3.56251 3.13184 3.20704C3.47363 2.85157 3.88607 2.56902 4.36914 2.35939C4.86133 2.14975 5.41276 2.04493 6.02344 2.04493C6.5612 2.04493 7.03971 2.12241 7.45898 2.27736C7.86914 2.4323 8.21777 2.64878 8.50488 2.92677C8.79199 3.20476 9.00846 3.53061 9.1543 3.90431C9.30013 4.27801 9.37305 4.68816 9.37305 5.13478C9.37305 5.709 9.30925 6.25587 9.18164 6.7754C9.06315 7.29493 8.89225 7.74838 8.66895 8.13575C8.44564 8.52312 8.17448 8.83074 7.85547 9.05861C7.54557 9.28647 7.19922 9.4004 6.81641 9.4004C6.39714 9.4004 6.05534 9.25001 5.79102 8.94923C5.52669 8.64845 5.44466 8.28387 5.54492 7.85548C5.67253 7.34506 5.82292 6.83465 5.99609 6.32423C6.16927 5.81381 6.25586 5.37176 6.25586 4.99806C6.25586 4.66993 6.16699 4.38738 5.98926 4.1504C5.81152 3.91342 5.54036 3.79493 5.17578 3.79493C4.7474 3.79493 4.38053 3.99318 4.0752 4.38966C3.76986 4.78615 3.61719 5.28061 3.61719 5.87306C3.61719 6.25587 3.66048 6.56349 3.74707 6.79591C3.83366 7.02833 3.87695 7.14454 3.87695 7.14454C3.87695 7.14454 3.83138 7.34506 3.74023 7.74611C3.64909 8.13803 3.54199 8.58693 3.41895 9.09279C3.2959 9.59864 3.17969 10.0931 3.07031 10.5762C2.96094 11.0501 2.88802 11.3692 2.85156 11.5332C2.69661 12.1804 2.65104 12.8298 2.71484 13.4815C2.77865 14.1332 2.8151 14.5 2.82422 14.582C2.83333 14.6367 2.86068 14.6686 2.90625 14.6777C2.95182 14.6869 2.98828 14.6732 3.01562 14.6367C3.05208 14.582 3.25944 14.2881 3.6377 13.7549C4.01595 13.2217 4.29167 12.6361 4.46484 11.9981C4.51042 11.8249 4.61523 11.4147 4.7793 10.7676C4.94336 10.1205 5.02539 9.79689 5.02539 9.79689C5.17122 10.0612 5.42643 10.2936 5.79102 10.4942C6.1556 10.6947 6.55664 10.7949 6.99414 10.7949C7.64128 10.7949 8.22917 10.6537 8.75781 10.3711C9.29557 10.0977 9.75358 9.71486 10.1318 9.22267C10.5101 8.73048 10.804 8.14715 11.0137 7.47267C11.2233 6.79819 11.3281 6.06902 11.3281 5.28517C11.3281 4.68361 11.2096 4.10483 10.9727 3.54884C10.7266 3.00197 10.3825 2.51433 9.94043 2.08595C9.49837 1.65756 8.96289 1.31577 8.33398 1.06056C7.70508 0.80535 7.00781 0.677748 6.24219 0.677748Z" fill="white"/>
</svg>
